<!-- 피노키오 로고 -->
<svg width="231" height="305" viewBox="0 0 231 305" fill="none" xmlns="http://www.w3.org/2000/svg">
<path opacity="0.948" fill-rule="evenodd" clip-rule="evenodd" d="M36.1659 39C35.0924 39.7506 34.9258 40.7506 35.6659 42C37.5061 40.6669 38.0061 40.8335 37.1659 42.5C38.4318 42.8095 39.5985 43.3095 40.6659 44C42.2695 47.3208 43.7695 50.6542 45.1659 54C45.1659 58 45.1659 62 45.1659 66C44.1659 66 43.1659 66 42.1659 66C40.0112 66.128 38.0112 65.628 36.1659 64.5C30.6212 60.566 25.2878 56.399 20.1659 52C8.33615 36.6846 3.00284 19.3513 4.16594 0C10.8131 4.8136 16.6464 10.4803 21.6659 17C24.1938 22.202 27.5271 26.8687 31.6659 31C33.4433 33.5594 34.9433 36.2261 36.1659 39Z" fill="#EC7348"/>
<path fill-rule="evenodd" clip-rule="evenodd" d="M10.166 16C15.3889 23.6907 19.8889 31.6907 23.666 40C17.8563 32.7115 13.3563 24.7115 10.166 16Z" fill="#EC7348"/>
<path opacity="0.959" fill-rule="evenodd" clip-rule="evenodd" d="M93.166 36.1229C76.855 44.6124 61.5221 54.6124 47.166 66.1229C46.9493 61.9179 46.2827 57.9179 45.166 54.1229C43.7696 50.7771 42.2696 47.4437 40.666 44.1229C39.5986 43.4324 38.4319 42.9324 37.166 42.6229C35.666 42.1229 37.166 42.6229 35.666 42.1229C34.9259 40.8735 35.0925 39.8735 36.166 39.1229C42.7129 37.0605 36.166 39.1229 42.7129 37.0605C68.166 36.6229 42.7129 37.0605 68.166 36.6229C76.493 36.1232 84.826 35.9565 93.166 36.1229Z" fill="#7392FF"/>
<path opacity="0.985" fill-rule="evenodd" clip-rule="evenodd" d="M110.166 38C136.259 44.1266 162.592 48.96 189.166 52.5C191.25 54.0007 192.583 56.001 193.166 58.5C191.933 62.117 190.599 65.617 189.166 69C184.165 64.496 178.498 60.996 172.166 58.5C143.623 59.721 116.623 67.055 91.166 80.5C78.782 88.054 67.782 97.221 58.166 108C58.8266 104.687 60.6599 102.02 63.666 100C64.354 99.168 64.187 98.502 63.166 98C58.0176 100.666 53.0176 103.499 48.166 106.5C43.9099 110.931 39.2433 114.765 34.166 118C34.166 117.333 34.166 116.667 34.166 116C36.8488 107.596 39.6821 99.262 42.666 91C45.1922 85.268 48.6922 80.268 53.166 76C54.6991 77.855 56.3657 79.688 58.166 81.5C59.1495 82.091 59.8161 81.757 60.166 80.5C58.6805 77.848 56.6805 75.682 54.166 74C55.2338 71.425 56.9005 69.258 59.166 67.5C65.166 63.5 71.166 59.5 77.166 55.5C87.94 49.1905 98.94 43.3572 110.166 38Z" fill="#7392FF"/>
<path opacity="0.999" fill-rule="evenodd" clip-rule="evenodd" d="M93.1669 36.0001C98.9359 35.9373 104.603 36.604 110.167 38.0001C98.9409 43.3573 87.9409 49.1906 77.1669 55.5001C71.1669 59.5001 65.1669 63.5001 59.1669 67.5001C56.9014 69.2581 55.2347 71.4251 54.1669 74.0001C53.3287 74.3421 52.9953 75.0081 53.1669 76.0001C48.6931 80.2681 45.1931 85.2681 42.6669 91.0001C39.683 99.2621 36.8497 107.596 34.1669 116C30.5874 112.91 29.2541 108.91 30.1669 104C31.015 99.2741 32.1817 94.6081 33.6669 90.0001C37.0724 82.1841 41.2391 74.8501 46.1669 68.0001C47.0051 67.6581 47.3385 66.9921 47.1669 66.0001C61.523 54.4896 76.8559 44.4896 93.1669 36.0001Z" fill="#FFC33F"/>
<path opacity="0.986" fill-rule="evenodd" clip-rule="evenodd" d="M20.1663 51.9993C25.2882 56.3983 30.6216 60.5653 36.1663 64.4993C38.0116 65.6273 40.0116 66.1273 42.1663 65.9993C43.18 67.1733 44.5133 67.8393 46.1663 67.9993C41.2385 74.8493 37.0718 82.1833 33.6663 89.9993C32.1811 94.6073 31.0144 99.2733 30.1663 103.999C27.6615 109.578 25.9949 115.578 25.1663 121.999C25.4135 123.212 26.0801 123.879 27.1663 123.999C21.8962 127.93 16.8962 132.263 12.1663 136.999C10.6399 125.99 8.97331 114.823 7.16631 103.499C6.16601 96.5 6.66631 91.5 7.66631 84.5C8.16631 82.4993 7.66631 84.5 8.16631 82.4993C10.1342 74.0953 12.8009 65.9293 16.1663 57.9993C17.1663 57.9993 18.1663 57.9993 19.1663 57.9993C19.1472 56.4393 18.8139 54.9393 18.1663 53.4993C18.5024 52.4694 19.1691 51.9694 20.1663 51.9993Z" fill="#7392FF"/>
<path opacity="0.972" fill-rule="evenodd" clip-rule="evenodd" d="M189.165 69C203.989 85.461 208.656 104.295 203.165 125.5C198.995 128.288 194.662 128.621 190.165 126.5C183.392 120.393 176.058 115.06 168.165 110.5C157.02 108.683 146.02 105.35 135.165 100.5C124.79 93.979 114.123 87.979 103.165 82.5C97.8253 80.966 93.3253 82.133 89.6653 86C88.1373 88.917 86.8043 91.917 85.6653 95C82.4643 107.47 78.7973 119.804 74.6653 132C71.2493 139.171 67.0833 145.838 62.1653 152C58.0811 153.181 54.0811 152.847 50.1653 151C38.4642 154.556 34.6309 162.223 38.6653 174C45.1289 181.308 52.2956 187.808 60.1653 193.5C59.5709 193.964 58.9042 194.131 58.1653 194C48.8219 190.494 40.6552 185.161 33.6653 178C28.4781 169.75 27.8114 161.083 31.6653 152C38.75 136.144 47.5833 121.477 58.1653 108C67.7813 97.221 78.7813 88.054 91.1653 80.5C116.622 67.055 143.622 59.721 172.165 58.5C178.497 60.996 184.164 64.496 189.165 69Z" fill="#7392FF"/>
<path fill-rule="evenodd" clip-rule="evenodd" d="M45.166 54C46.2827 57.795 46.9493 61.795 47.166 66C47.3376 66.992 47.0042 67.658 46.166 68C44.513 67.84 43.1797 67.174 42.166 66C43.166 66 44.166 66 45.166 66C45.166 62 45.166 58 45.166 54Z" fill="#EC7348"/>
<path fill-rule="evenodd" clip-rule="evenodd" d="M54.1668 74C56.6813 75.682 58.6813 77.848 60.1668 80.5C59.8169 81.757 59.1503 82.091 58.1668 81.5C56.3665 79.688 54.6999 77.855 53.1668 76C52.9952 75.008 53.3286 74.342 54.1668 74Z" fill="#EC7348"/>
<path opacity="0.986" fill-rule="evenodd" clip-rule="evenodd" d="M58.1656 108C47.5836 121.477 38.7503 136.144 31.6656 152C27.8117 161.083 28.4784 169.75 33.6656 178C40.6555 185.161 48.8222 190.494 58.1656 194C58.2514 194.996 57.918 195.829 57.1656 196.5C36.9645 200.211 19.4645 194.378 4.6656 179C-1.5552 168.105 -1.5552 157.438 4.6656 147C6.9313 143.458 9.4313 140.125 12.1656 137C16.8955 132.264 21.8955 127.931 27.1656 124C29.2724 121.773 31.6057 119.773 34.1656 118C39.2429 114.765 43.9095 110.931 48.1656 106.5C53.0172 103.499 58.0172 100.666 63.1656 98C64.1866 98.502 64.3536 99.168 63.6656 100C60.6595 102.02 58.8262 104.687 58.1656 108Z" fill="#7392FF"/>
<path fill-rule="evenodd" clip-rule="evenodd" d="M30.166 104C29.2532 108.91 30.5865 112.91 34.166 116C34.166 116.667 34.166 117.333 34.166 118C31.6061 119.773 29.2728 121.773 27.166 124C26.0798 123.88 25.4132 123.213 25.166 122C25.9946 115.579 27.6612 109.579 30.166 104Z" fill="#7392FF"/>
<path opacity="0.961" fill-rule="evenodd" clip-rule="evenodd" d="M219.166 145C230.287 144.321 233.12 148.987 227.666 159C226.108 160.859 224.275 162.359 222.166 163.5C214.787 165.182 207.787 167.848 201.166 171.5C187.123 176.053 172.956 180.22 158.666 184C153.231 183.82 147.898 183.82 142.666 184C136.647 179.962 133.814 174.296 134.166 167C135.992 163.995 138.659 162.161 142.166 161.5C167.849 155.399 193.515 149.899 219.166 145Z" fill="#FFC33F"/>
<path opacity="0.966" fill-rule="evenodd" clip-rule="evenodd" d="M128.902 221.5C137.402 221.5 139.471 225.7 143.903 231C154.859 246.865 161.166 264.5 164.403 283.5C165.166 291.5 159.401 293.182 152.403 291.5C144.481 288.251 137.411 283.418 131.666 277C126.666 271 123.166 266 119.403 261C113.888 264.373 108.222 264.706 102.403 262C99.0736 279.482 90.666 294.5 75.166 303.5C67.166 306.5 62.9037 301.5 59.9026 291.5C58.404 269 64.0976 249.271 74.9026 230C77.5356 225.433 81.3696 223.933 86.4026 225.5C91.166 228 93.166 229 97.4039 233C102.403 232.5 97.4039 233 102.403 232.5C107.718 231.687 113.051 231.021 118.403 230.5C121.607 227.464 121.402 221.5 128.902 221.5Z" fill="#7392FF"/>
</svg>
