<svg width="221" height="140" viewBox="0 0 221 140" fill="none" xmlns="http://www.w3.org/2000/svg">
<rect width="221" height="140" rx="10" fill="black"/>
<rect x="3" y="3" width="215" height="134" rx="8" fill="#66B1BE"/>
<rect x="2" y="25" width="217" height="23" fill="black"/>
<rect x="3" y="28" width="215" height="17" fill="#515D85"/>
<rect x="18" y="85" width="59" height="4" rx="2" fill="black"/>
<rect x="18" y="102" width="90" height="4" rx="2" fill="black"/>
<rect x="145" y="73" width="54" height="44" rx="8" fill="black"/>
<rect x="148" y="76" width="48" height="38" rx="6" fill="#F4C540"/>
<rect x="161" y="73" width="3" height="44" fill="black"/>
<rect x="180" y="73" width="3" height="44" fill="black"/>
<rect x="146" y="83" width="18" height="3" fill="black"/>
<rect x="146" y="94" width="18" height="3" fill="black"/>
<rect x="146" y="104" width="18" height="3" fill="black"/>
<rect x="180" y="83" width="18" height="3" fill="black"/>
<rect x="180" y="94" width="18" height="3" fill="black"/>
<rect x="180" y="104" width="18" height="3" fill="black"/>
</svg>
