<svg width="255" height="260" viewBox="0 0 255 260" fill="none" xmlns="http://www.w3.org/2000/svg">
<g filter="url(#filter0_d_1023_319)">
<path fill-rule="evenodd" clip-rule="evenodd" d="M250 125C250 170.75 225.422 210.759 188.75 232.544V213.726C204.048 213.071 216.249 200.462 216.249 185.003H188.75V142.5C188.75 139.739 186.511 137.5 183.75 137.5H180C177.239 137.5 175 139.739 175 142.5V185.003H147.499C147.499 200.462 159.701 213.072 175 213.726V239.599C159.688 246.289 142.778 250 125 250C108.185 250 92.1451 246.68 77.5007 240.659V216.947C95.2364 213.773 108.751 197.32 108.751 177.5C108.751 155.409 91.9614 137.5 71.2507 137.5C50.54 137.5 33.7507 155.409 33.7507 177.5C33.7507 196.852 46.6339 212.994 63.7507 216.7V233.991C25.6995 212.562 0 171.782 0 125C0 55.9644 55.9644 0 125 0C194.036 0 250 55.9644 250 125ZM202.501 142.5C202.501 139.739 204.739 137.5 207.501 137.5H211.251C214.012 137.5 216.251 139.739 216.251 142.5V185H202.501V142.5ZM152.5 137.5C149.738 137.5 147.5 139.739 147.5 142.5V185H161.25V142.5C161.25 139.739 159.011 137.5 156.25 137.5H152.5Z" fill="#7392FF"/>
</g>
<mask id="path-2-outside-1_1023_319" maskUnits="userSpaceOnUse" x="56" y="38" width="141" height="71" fill="black">
<rect fill="white" x="56" y="38" width="141" height="71"/>
<path d="M85.2688 39.96V105.16H57.7487V39.96H85.2688ZM63.3488 45.24V99.88H79.6688V45.24H63.3488ZM117.589 39.08V105.96H111.989V72.2H100.309V105.96H94.7087V39.08H100.309V66.92H111.989V39.08H117.589ZM146.26 107.64C136.58 107.4 131.38 100.44 131.38 93.4C131.38 86.04 135.94 79.32 146.42 79.08C154.66 78.92 163.7 78.92 171.94 79.08C182.26 79.08 186.98 85.96 186.98 93.4C186.98 100.52 181.78 107.4 172.02 107.64C162.34 107.88 156.42 107.88 146.26 107.64ZM146.9 102.36C150.66 102.44 154.82 102.44 159.22 102.44C163.62 102.44 167.7 102.44 171.46 102.36C178.74 102.12 181.38 97.8 181.38 93.48C181.38 88.84 179.14 84.44 171.38 84.44C167.62 84.36 163.54 84.36 159.22 84.36C154.82 84.36 150.74 84.36 146.98 84.44C139.14 84.44 136.98 88.92 136.98 93.48C136.98 97.8 139.62 102.12 146.9 102.36ZM167.78 45.24H155.22L168.18 73.48H162.02L148.9 45.24H147.46L134.18 73.48H128.02L140.98 45.24H128.34V39.96H167.78V45.24ZM195.54 54.04V59.32H184.1V75H178.5V39.08H184.1V54.04H195.54Z"/>
</mask>
<path d="M85.2688 39.96V105.16H57.7487V39.96H85.2688ZM63.3488 45.24V99.88H79.6688V45.24H63.3488ZM117.589 39.08V105.96H111.989V72.2H100.309V105.96H94.7087V39.08H100.309V66.92H111.989V39.08H117.589ZM146.26 107.64C136.58 107.4 131.38 100.44 131.38 93.4C131.38 86.04 135.94 79.32 146.42 79.08C154.66 78.92 163.7 78.92 171.94 79.08C182.26 79.08 186.98 85.96 186.98 93.4C186.98 100.52 181.78 107.4 172.02 107.64C162.34 107.88 156.42 107.88 146.26 107.64ZM146.9 102.36C150.66 102.44 154.82 102.44 159.22 102.44C163.62 102.44 167.7 102.44 171.46 102.36C178.74 102.12 181.38 97.8 181.38 93.48C181.38 88.84 179.14 84.44 171.38 84.44C167.62 84.36 163.54 84.36 159.22 84.36C154.82 84.36 150.74 84.36 146.98 84.44C139.14 84.44 136.98 88.92 136.98 93.48C136.98 97.8 139.62 102.12 146.9 102.36ZM167.78 45.24H155.22L168.18 73.48H162.02L148.9 45.24H147.46L134.18 73.48H128.02L140.98 45.24H128.34V39.96H167.78V45.24ZM195.54 54.04V59.32H184.1V75H178.5V39.08H184.1V54.04H195.54Z" fill="white"/>
<path d="M85.2688 39.96H86.2688V38.96H85.2688V39.96ZM85.2688 105.16V106.16H86.2688V105.16H85.2688ZM57.7487 105.16H56.7487V106.16H57.7487V105.16ZM57.7487 39.96V38.96H56.7487V39.96H57.7487ZM63.3488 45.24V44.24H62.3488V45.24H63.3488ZM63.3488 99.88H62.3488V100.88H63.3488V99.88ZM79.6688 99.88V100.88H80.6688V99.88H79.6688ZM79.6688 45.24H80.6688V44.24H79.6688V45.24ZM117.589 39.08H118.589V38.08H117.589V39.08ZM117.589 105.96V106.96H118.589V105.96H117.589ZM111.989 105.96H110.989V106.96H111.989V105.96ZM111.989 72.2H112.989V71.2H111.989V72.2ZM100.309 72.2V71.2H99.3088V72.2H100.309ZM100.309 105.96V106.96H101.309V105.96H100.309ZM94.7087 105.96H93.7087V106.96H94.7087V105.96ZM94.7087 39.08V38.08H93.7087V39.08H94.7087ZM100.309 39.08H101.309V38.08H100.309V39.08ZM100.309 66.92H99.3088V67.92H100.309V66.92ZM111.989 66.92V67.92H112.989V66.92H111.989ZM111.989 39.08V38.08H110.989V39.08H111.989ZM84.2688 39.96V105.16H86.2688V39.96H84.2688ZM85.2688 104.16H57.7487V106.16H85.2688V104.16ZM58.7487 105.16V39.96H56.7487V105.16H58.7487ZM57.7487 40.96H85.2688V38.96H57.7487V40.96ZM62.3488 45.24V99.88H64.3488V45.24H62.3488ZM63.3488 100.88H79.6688V98.88H63.3488V100.88ZM80.6688 99.88V45.24H78.6688V99.88H80.6688ZM79.6688 44.24H63.3488V46.24H79.6688V44.24ZM116.589 39.08V105.96H118.589V39.08H116.589ZM117.589 104.96H111.989V106.96H117.589V104.96ZM112.989 105.96V72.2H110.989V105.96H112.989ZM111.989 71.2H100.309V73.2H111.989V71.2ZM99.3088 72.2V105.96H101.309V72.2H99.3088ZM100.309 104.96H94.7087V106.96H100.309V104.96ZM95.7087 105.96V39.08H93.7087V105.96H95.7087ZM94.7087 40.08H100.309V38.08H94.7087V40.08ZM99.3088 39.08V66.92H101.309V39.08H99.3088ZM100.309 67.92H111.989V65.92H100.309V67.92ZM112.989 66.92V39.08H110.989V66.92H112.989ZM111.989 40.08H117.589V38.08H111.989V40.08ZM146.26 107.64L146.235 108.64L146.236 108.64L146.26 107.64ZM146.42 79.08L146.401 78.0802L146.397 78.0803L146.42 79.08ZM171.94 79.08L171.921 80.0798L171.93 80.08H171.94V79.08ZM172.02 107.64L171.995 106.64L171.995 106.64L172.02 107.64ZM146.9 102.36L146.867 103.36L146.879 103.36L146.9 102.36ZM171.46 102.36L171.481 103.36L171.493 103.359L171.46 102.36ZM171.38 84.44L171.359 85.4398L171.369 85.44H171.38V84.44ZM146.98 84.44V85.44H146.991L147.001 85.4398L146.98 84.44ZM167.78 45.24V46.24H168.78V45.24H167.78ZM155.22 45.24V44.24H153.661L154.311 45.6571L155.22 45.24ZM168.18 73.48V74.48H169.739L169.089 73.0629L168.18 73.48ZM162.02 73.48L161.113 73.9013L161.382 74.48H162.02V73.48ZM148.9 45.24L149.807 44.8187L149.538 44.24H148.9V45.24ZM147.46 45.24V44.24H146.825L146.555 44.8144L147.46 45.24ZM134.18 73.48V74.48H134.815L135.085 73.9055L134.18 73.48ZM128.02 73.48L127.111 73.0629L126.461 74.48H128.02V73.48ZM140.98 45.24L141.889 45.6571L142.539 44.24H140.98V45.24ZM128.34 45.24H127.34V46.24H128.34V45.24ZM128.34 39.96V38.96H127.34V39.96H128.34ZM167.78 39.96H168.78V38.96H167.78V39.96ZM195.54 54.04H196.54V53.04H195.54V54.04ZM195.54 59.32V60.32H196.54V59.32H195.54ZM184.1 59.32V58.32H183.1V59.32H184.1ZM184.1 75V76H185.1V75H184.1ZM178.5 75H177.5V76H178.5V75ZM178.5 39.08V38.08H177.5V39.08H178.5ZM184.1 39.08H185.1V38.08H184.1V39.08ZM184.1 54.04H183.1V55.04H184.1V54.04ZM146.285 106.64C137.174 106.414 132.38 99.925 132.38 93.4H130.38C130.38 100.955 135.986 108.386 146.235 108.64L146.285 106.64ZM132.38 93.4C132.38 89.9214 133.456 86.662 135.702 84.2516C137.937 81.8525 141.423 80.1947 146.443 80.0797L146.397 78.0803C140.937 78.2053 136.903 80.0275 134.238 82.8884C131.584 85.738 130.38 89.5186 130.38 93.4H132.38ZM146.439 80.0798C154.666 79.9201 163.694 79.9201 171.921 80.0798L171.959 78.0802C163.706 77.9199 154.654 77.9199 146.401 78.0802L146.439 80.0798ZM171.94 80.08C176.865 80.08 180.345 81.7136 182.598 84.1318C184.866 86.5643 185.98 89.885 185.98 93.4H187.98C187.98 89.475 186.734 85.6357 184.062 82.7682C181.375 79.8864 177.335 78.08 171.94 78.08V80.08ZM185.98 93.4C185.98 99.9978 181.193 106.414 171.995 106.64L172.045 108.64C182.367 108.386 187.98 101.042 187.98 93.4H185.98ZM171.995 106.64C162.332 106.88 156.428 106.88 146.284 106.64L146.236 108.64C156.412 108.88 162.348 108.88 172.045 108.64L171.995 106.64ZM146.879 103.36C150.651 103.44 154.823 103.44 159.22 103.44V101.44C154.817 101.44 150.669 101.44 146.921 101.36L146.879 103.36ZM159.22 103.44C163.617 103.44 167.709 103.44 171.481 103.36L171.439 101.36C167.691 101.44 163.623 101.44 159.22 101.44V103.44ZM171.493 103.359C175.331 103.233 178.083 102.022 179.874 100.139C181.658 98.2651 182.38 95.8383 182.38 93.48H180.38C180.38 95.4417 179.782 97.3349 178.426 98.7607C177.077 100.178 174.869 101.247 171.427 101.361L171.493 103.359ZM182.38 93.48C182.38 91.0163 181.787 88.4762 180.029 86.5467C178.256 84.599 175.449 83.44 171.38 83.44V85.44C175.071 85.44 177.264 86.481 178.551 87.8933C179.853 89.3238 180.38 91.3037 180.38 93.48H182.38ZM171.401 83.4402C167.629 83.36 163.537 83.36 159.22 83.36V85.36C163.543 85.36 167.611 85.36 171.359 85.4398L171.401 83.4402ZM159.22 83.36C154.823 83.36 150.731 83.36 146.959 83.4402L147.001 85.4398C150.749 85.36 154.817 85.36 159.22 85.36V83.36ZM146.98 83.44C142.868 83.44 140.06 84.6205 138.296 86.5813C136.551 88.5216 135.98 91.0605 135.98 93.48H137.98C137.98 91.3395 138.489 89.3584 139.784 87.9187C141.06 86.4995 143.252 85.44 146.98 85.44V83.44ZM135.98 93.48C135.98 95.8383 136.702 98.2651 138.486 100.139C140.277 102.022 143.029 103.233 146.867 103.359L146.933 101.361C143.491 101.247 141.283 100.178 139.934 98.7607C138.578 97.3349 137.98 95.4417 137.98 93.48H135.98ZM167.78 44.24H155.22V46.24H167.78V44.24ZM154.311 45.6571L167.271 73.8971L169.089 73.0629L156.129 44.8229L154.311 45.6571ZM168.18 72.48H162.02V74.48H168.18V72.48ZM162.927 73.0587L149.807 44.8187L147.993 45.6613L161.113 73.9013L162.927 73.0587ZM148.9 44.24H147.46V46.24H148.9V44.24ZM146.555 44.8144L133.275 73.0544L135.085 73.9055L148.365 45.6655L146.555 44.8144ZM134.18 72.48H128.02V74.48H134.18V72.48ZM128.929 73.8971L141.889 45.6571L140.071 44.8229L127.111 73.0629L128.929 73.8971ZM140.98 44.24H128.34V46.24H140.98V44.24ZM129.34 45.24V39.96H127.34V45.24H129.34ZM128.34 40.96H167.78V38.96H128.34V40.96ZM166.78 39.96V45.24H168.78V39.96H166.78ZM194.54 54.04V59.32H196.54V54.04H194.54ZM195.54 58.32H184.1V60.32H195.54V58.32ZM183.1 59.32V75H185.1V59.32H183.1ZM184.1 74H178.5V76H184.1V74ZM179.5 75V39.08H177.5V75H179.5ZM178.5 40.08H184.1V38.08H178.5V40.08ZM183.1 39.08V54.04H185.1V39.08H183.1ZM184.1 55.04H195.54V53.04H184.1V55.04Z" fill="white" mask="url(#path-2-outside-1_1023_319)"/>
<defs>
<filter id="filter0_d_1023_319" x="0" y="0" width="255" height="260" filterUnits="userSpaceOnUse" color-interpolation-filters="sRGB">
<feFlood flood-opacity="0" result="BackgroundImageFix"/>
<feColorMatrix in="SourceAlpha" type="matrix" values="0 0 0 0 0 0 0 0 0 0 0 0 0 0 0 0 0 0 127 0" result="hardAlpha"/>
<feOffset dx="5" dy="10"/>
<feComposite in2="hardAlpha" operator="out"/>
<feColorMatrix type="matrix" values="0 0 0 0 0 0 0 0 0 0 0 0 0 0 0 0 0 0 0.25 0"/>
<feBlend mode="normal" in2="BackgroundImageFix" result="effect1_dropShadow_1023_319"/>
<feBlend mode="normal" in="SourceGraphic" in2="effect1_dropShadow_1023_319" result="shape"/>
</filter>
</defs>
</svg>
