<svg width="330" height="406" viewBox="0 0 330 406" fill="none" xmlns="http://www.w3.org/2000/svg">
<g clip-path="url(#clip0_1009_246)">
<path d="M322.764 0H7.01361C3.1401 0 0 3.1401 0 7.01361V398.994C0 402.867 3.1401 406.007 7.01361 406.007H322.764C326.638 406.007 329.778 402.867 329.778 398.994V7.01361C329.778 3.1401 326.638 0 322.764 0Z" fill="#EEEEEE"/>
<path d="M148.686 106.724L85.6447 125.209C81.1945 126.514 78.6448 131.18 79.9497 135.63L100.681 206.329C101.986 210.779 106.651 213.329 111.101 212.024L174.143 193.538C178.593 192.233 181.143 187.568 179.838 183.118L159.107 112.419C157.802 107.968 153.136 105.419 148.686 106.724Z" fill="#9F9F9F"/>
<path d="M238.121 93.9386L143.454 66.2193C141.018 65.506 138.465 66.9026 137.751 69.3387L107.747 171.809C107.034 174.246 108.43 176.799 110.866 177.512L205.533 205.231C207.969 205.945 210.522 204.548 211.236 202.112L241.24 99.6412C241.953 97.205 240.557 94.6519 238.121 93.9386Z" fill="url(#paint0_linear_1009_246)" stroke="white" stroke-width="5.398" stroke-linecap="round" stroke-linejoin="round"/>
<path d="M228.895 102.238L147.52 78.4102L125.687 152.974L207.062 176.801L228.895 102.238Z" fill="#CCCCCC" stroke="white" stroke-width="2.25674" stroke-linecap="round" stroke-linejoin="round"/>
<path d="M228.895 102.238L147.52 78.4102L137.331 113.207L218.706 137.034L228.895 102.238Z" fill="white" stroke="white" stroke-width="2.25674" stroke-linecap="round" stroke-linejoin="round"/>
<path d="M103.861 265.061V288.334H99.6107L89.4857 273.686H89.3153V288.334H84.3948V265.061H88.713L98.7584 279.698H98.963V265.061H103.861ZM129.312 276.698C129.312 279.235 128.831 281.395 127.869 283.175C126.915 284.955 125.612 286.315 123.96 287.254C122.316 288.186 120.468 288.652 118.415 288.652C116.347 288.652 114.49 288.182 112.847 287.243C111.203 286.304 109.903 284.944 108.949 283.164C107.994 281.383 107.517 279.228 107.517 276.698C107.517 274.16 107.994 272.001 108.949 270.22C109.903 268.44 111.203 267.084 112.847 266.152C114.49 265.213 116.347 264.743 118.415 264.743C120.468 264.743 122.316 265.213 123.96 266.152C125.612 267.084 126.915 268.44 127.869 270.22C128.831 272.001 129.312 274.16 129.312 276.698ZM124.324 276.698C124.324 275.054 124.078 273.667 123.585 272.539C123.1 271.41 122.415 270.554 121.528 269.97C120.642 269.387 119.604 269.095 118.415 269.095C117.225 269.095 116.187 269.387 115.301 269.97C114.415 270.554 113.725 271.41 113.233 272.539C112.748 273.667 112.506 275.054 112.506 276.698C112.506 278.342 112.748 279.728 113.233 280.857C113.725 281.985 114.415 282.842 115.301 283.425C116.187 284.008 117.225 284.3 118.415 284.3C119.604 284.3 120.642 284.008 121.528 283.425C122.415 282.842 123.1 281.985 123.585 280.857C124.078 279.728 124.324 278.342 124.324 276.698ZM145.284 265.061V288.334H140.364V265.061H145.284ZM149.332 265.061H155.4L161.81 280.698H162.082L168.491 265.061H174.56V288.334H169.787V273.186H169.594L163.571 288.22H160.321L154.298 273.129H154.105V288.334H149.332V265.061ZM182.625 288.334H177.352L185.386 265.061H191.727L199.75 288.334H194.477L188.648 270.379H188.466L182.625 288.334ZM182.295 279.186H194.75V283.027H182.295V279.186ZM216.889 272.584C216.73 272.031 216.507 271.542 216.219 271.118C215.931 270.686 215.579 270.323 215.162 270.027C214.753 269.724 214.283 269.493 213.753 269.334C213.23 269.175 212.65 269.095 212.014 269.095C210.825 269.095 209.779 269.391 208.878 269.982C207.984 270.573 207.287 271.432 206.787 272.561C206.287 273.682 206.037 275.054 206.037 276.675C206.037 278.296 206.283 279.675 206.775 280.811C207.268 281.948 207.965 282.815 208.866 283.414C209.768 284.004 210.832 284.3 212.06 284.3C213.173 284.3 214.124 284.103 214.912 283.709C215.707 283.307 216.313 282.743 216.73 282.016C217.154 281.289 217.366 280.429 217.366 279.436L218.366 279.584H212.366V275.879H222.105V278.811C222.105 280.857 221.673 282.614 220.81 284.084C219.946 285.546 218.757 286.675 217.241 287.47C215.726 288.258 213.991 288.652 212.037 288.652C209.855 288.652 207.938 288.171 206.287 287.209C204.635 286.239 203.347 284.864 202.423 283.084C201.507 281.296 201.048 279.175 201.048 276.72C201.048 274.834 201.321 273.152 201.866 271.675C202.419 270.19 203.192 268.932 204.185 267.902C205.177 266.872 206.332 266.088 207.65 265.55C208.969 265.012 210.397 264.743 211.935 264.743C213.253 264.743 214.48 264.936 215.616 265.323C216.753 265.701 217.76 266.239 218.639 266.936C219.525 267.633 220.249 268.463 220.81 269.425C221.37 270.379 221.73 271.432 221.889 272.584H216.889ZM225.801 288.334V265.061H241.483V269.118H230.722V274.664H240.676V278.72H230.722V284.277H241.528V288.334H225.801Z" fill="#767676"/>
<path d="M80.7187 328.334H75.4459L83.48 305.061H89.8209L97.8437 328.334H92.5709L86.7414 310.379H86.5596L80.7187 328.334ZM80.3891 319.186H92.8437V323.027H80.3891V319.186ZM101.943 305.061L107.568 322.743H107.784L113.42 305.061H118.875L110.852 328.334H104.511L96.4772 305.061H101.943ZM122.594 328.334H117.321L125.355 305.061H131.696L139.719 328.334H134.446L128.616 310.379H128.435L122.594 328.334ZM122.264 319.186H134.719V323.027H122.264V319.186ZM147.44 305.061V328.334H142.52V305.061H147.44ZM151.489 328.334V305.061H156.409V324.277H166.386V328.334H151.489ZM174.25 328.334H168.977L177.011 305.061H183.352L191.375 328.334H186.102L180.273 310.379H180.091L174.25 328.334ZM173.92 319.186H186.375V323.027H173.92V319.186ZM194.176 328.334V305.061H203.494C205.206 305.061 206.634 305.315 207.778 305.823C208.922 306.33 209.782 307.035 210.358 307.936C210.934 308.83 211.222 309.86 211.222 311.027C211.222 311.936 211.04 312.735 210.676 313.425C210.312 314.107 209.812 314.667 209.176 315.107C208.547 315.539 207.828 315.845 207.017 316.027V316.254C207.903 316.292 208.733 316.542 209.506 317.004C210.286 317.467 210.918 318.114 211.403 318.948C211.888 319.773 212.131 320.758 212.131 321.902C212.131 323.137 211.824 324.239 211.21 325.209C210.604 326.171 209.706 326.932 208.517 327.493C207.328 328.054 205.862 328.334 204.119 328.334H194.176ZM199.097 324.311H203.108C204.479 324.311 205.479 324.05 206.108 323.527C206.737 322.997 207.051 322.292 207.051 321.414C207.051 320.77 206.896 320.201 206.585 319.709C206.275 319.217 205.831 318.83 205.256 318.55C204.687 318.27 204.009 318.129 203.222 318.129H199.097V324.311ZM199.097 314.8H202.744C203.418 314.8 204.017 314.682 204.54 314.448C205.07 314.205 205.487 313.864 205.79 313.425C206.1 312.985 206.256 312.459 206.256 311.845C206.256 311.004 205.956 310.326 205.358 309.811C204.767 309.296 203.926 309.039 202.835 309.039H199.097V314.8ZM215.332 328.334V305.061H220.253V324.277H230.23V328.334H215.332ZM233.489 328.334V305.061H249.17V309.118H238.409V314.664H248.364V318.72H238.409V324.277H249.216V328.334H233.489Z" fill="#767676"/>
</g>
<defs>
<linearGradient id="paint0_linear_1009_246" x1="202.454" y1="89.0209" x2="172.197" y2="186.629" gradientUnits="userSpaceOnUse">
<stop stop-color="#C2C2C2"/>
<stop offset="1" stop-color="#9F9F9F"/>
</linearGradient>
<clipPath id="clip0_1009_246">
<rect width="329.778" height="406.007" fill="white"/>
</clipPath>
</defs>
</svg>
