<svg width="1207" height="470" viewBox="0 0 1207 470" fill="none" xmlns="http://www.w3.org/2000/svg">
<g filter="url(#filter0_b_968_21)">
<path d="M341.762 272.2H351.762V182.2H341.762V149.4H429.562C446.762 149.4 459.895 153.133 468.962 160.6C478.028 167.933 482.562 179.867 482.562 196.4C482.562 212.933 478.028 224.933 468.962 232.4C459.895 239.733 446.762 243.4 429.562 243.4H407.762V272.2H426.962V305H341.762V272.2ZM414.562 215C422.295 215 426.162 210.733 426.162 202.2V195C426.162 190.6 425.162 187.4 423.162 185.4C421.295 183.267 418.428 182.2 414.562 182.2H407.762V215H414.562ZM498.618 182.8V149.4H539.418V182.8H498.618ZM489.018 305V272.2H497.818V226.6H489.018V193.8H543.818V272.2H552.618V305H489.018ZM690.959 272.2V305H627.759V272.2H636.159V239.4C636.159 235 635.225 231.8 633.359 229.8C631.492 227.667 628.692 226.6 624.959 226.6C616.959 226.6 612.959 230.867 612.959 239.4V272.2H621.359V305H558.159V272.2H566.959V226.6H558.159V193.8H612.959V209.4C622.559 197.133 634.559 191 648.959 191C660.025 191 668.292 194.467 673.759 201.4C679.359 208.333 682.159 217.867 682.159 230V272.2H690.959ZM757.016 307.8C738.083 307.8 723.283 302.867 712.616 293C701.95 283 696.616 268.467 696.616 249.4C696.616 230.333 701.95 215.867 712.616 206C723.283 196 738.083 191 757.016 191C776.216 191 791.083 196.067 801.616 206.2C812.15 216.2 817.416 230.6 817.416 249.4C817.416 268.467 812.083 283 801.416 293C790.75 302.867 775.95 307.8 757.016 307.8ZM757.016 272.2C760.883 272.2 763.75 271.2 765.616 269.2C767.616 267.067 768.616 263.8 768.616 259.4V239.4C768.616 235 767.616 231.8 765.616 229.8C763.75 227.667 760.883 226.6 757.016 226.6C753.15 226.6 750.216 227.667 748.216 229.8C746.35 231.8 745.416 235 745.416 239.4V259.4C745.416 263.8 746.35 267.067 748.216 269.2C750.216 271.2 753.15 272.2 757.016 272.2ZM944.384 272.2H952.984V305H903.984L883.384 266.6H878.584V305H823.784V272.2H832.584V182.2H823.784V149.4H878.584V230.6H883.384L908.184 193.8H950.384V226.6H942.184L925.184 245.6L944.384 272.2ZM968.93 182.8V149.4H1009.73V182.8H968.93ZM959.33 305V272.2H968.13V226.6H959.33V193.8H1014.13V272.2H1022.93V305H959.33ZM1088.07 307.8C1069.14 307.8 1054.34 302.867 1043.67 293C1033 283 1027.67 268.467 1027.67 249.4C1027.67 230.333 1033 215.867 1043.67 206C1054.34 196 1069.14 191 1088.07 191C1107.27 191 1122.14 196.067 1132.67 206.2C1143.2 216.2 1148.47 230.6 1148.47 249.4C1148.47 268.467 1143.14 283 1132.47 293C1121.8 302.867 1107 307.8 1088.07 307.8ZM1088.07 272.2C1091.94 272.2 1094.8 271.2 1096.67 269.2C1098.67 267.067 1099.67 263.8 1099.67 259.4V239.4C1099.67 235 1098.67 231.8 1096.67 229.8C1094.8 227.667 1091.94 226.6 1088.07 226.6C1084.2 226.6 1081.27 227.667 1079.27 229.8C1077.4 231.8 1076.47 235 1076.47 239.4V259.4C1076.47 263.8 1077.4 267.067 1079.27 269.2C1081.27 271.2 1084.2 272.2 1088.07 272.2Z" fill="#7392FF"/>
</g>
<path opacity="0.948" fill-rule="evenodd" clip-rule="evenodd" d="M80.1659 105C79.0924 105.751 78.9258 106.751 79.6659 108C81.5061 106.667 82.0061 106.834 81.1659 108.5C82.4318 108.81 83.5985 109.309 84.6659 110C86.2695 113.321 87.7695 116.654 89.1659 120C89.1659 124 89.1659 128 89.1659 132C88.1659 132 87.1659 132 86.1659 132C84.0112 132.128 82.0112 131.628 80.1659 130.5C74.6212 126.566 69.2878 122.399 64.1659 118C52.3361 102.685 47.0028 85.3513 48.1659 66C54.8131 70.8136 60.6464 76.4803 65.6659 83C68.1938 88.202 71.5271 92.8687 75.6659 97C77.4433 99.5594 78.9433 102.226 80.1659 105Z" fill="#EC7348"/>
<path fill-rule="evenodd" clip-rule="evenodd" d="M54.166 82C59.3889 89.6907 63.8889 97.6907 67.666 106C61.8563 98.7115 57.3563 90.7115 54.166 82Z" fill="#EC7348"/>
<path opacity="0.959" fill-rule="evenodd" clip-rule="evenodd" d="M137.166 102.123C120.855 110.612 105.522 120.612 91.166 132.123C90.9493 127.918 90.2827 123.918 89.166 120.123C87.7696 116.777 86.2696 113.444 84.666 110.123C83.5986 109.432 82.4319 108.932 81.166 108.623C79.666 108.123 81.166 108.623 79.666 108.123C78.9259 106.873 79.0925 105.873 80.166 105.123C86.7129 103.061 80.166 105.123 86.7129 103.061C112.166 102.623 86.7129 103.061 112.166 102.623C120.493 102.123 128.826 101.956 137.166 102.123Z" fill="#7392FF"/>
<path opacity="0.985" fill-rule="evenodd" clip-rule="evenodd" d="M154.166 104C180.259 110.127 206.592 114.96 233.166 118.5C235.25 120.001 236.583 122.001 237.166 124.5C235.933 128.117 234.599 131.617 233.166 135C228.165 130.496 222.498 126.996 216.166 124.5C187.623 125.721 160.623 133.055 135.166 146.5C122.782 154.054 111.782 163.221 102.166 174C102.827 170.687 104.66 168.02 107.666 166C108.354 165.168 108.187 164.502 107.166 164C102.018 166.666 97.0176 169.499 92.166 172.5C87.9099 176.931 83.2433 180.765 78.166 184C78.166 183.333 78.166 182.667 78.166 182C80.8488 173.596 83.6821 165.262 86.666 157C89.1922 151.268 92.6922 146.268 97.166 142C98.6991 143.855 100.366 145.688 102.166 147.5C103.15 148.091 103.816 147.757 104.166 146.5C102.681 143.848 100.681 141.682 98.166 140C99.2338 137.425 100.901 135.258 103.166 133.5C109.166 129.5 115.166 125.5 121.166 121.5C131.94 115.19 142.94 109.357 154.166 104Z" fill="#7392FF"/>
<path opacity="0.999" fill-rule="evenodd" clip-rule="evenodd" d="M137.167 102C142.936 101.937 148.603 102.604 154.167 104C142.941 109.357 131.941 115.191 121.167 121.5C115.167 125.5 109.167 129.5 103.167 133.5C100.901 135.258 99.2347 137.425 98.1669 140C97.3287 140.342 96.9953 141.008 97.1669 142C92.6931 146.268 89.1931 151.268 86.6669 157C83.683 165.262 80.8497 173.596 78.1669 182C74.5874 178.91 73.2541 174.91 74.1669 170C75.015 165.274 76.1817 160.608 77.6669 156C81.0724 148.184 85.2391 140.85 90.1669 134C91.0051 133.658 91.3385 132.992 91.1669 132C105.523 120.49 120.856 110.49 137.167 102Z" fill="#FFC33F"/>
<path opacity="0.986" fill-rule="evenodd" clip-rule="evenodd" d="M64.1663 117.999C69.2882 122.398 74.6216 126.565 80.1663 130.499C82.0116 131.627 84.0116 132.127 86.1663 131.999C87.18 133.173 88.5133 133.839 90.1663 133.999C85.2385 140.849 81.0718 148.183 77.6663 155.999C76.1811 160.607 75.0144 165.273 74.1663 169.999C71.6615 175.578 69.9949 181.578 69.1663 187.999C69.4135 189.212 70.0801 189.879 71.1663 189.999C65.8962 193.93 60.8962 198.263 56.1663 202.999C54.6399 191.99 52.9733 180.823 51.1663 169.499C50.166 162.5 50.6663 157.5 51.6663 150.5C52.1663 148.499 51.6663 150.5 52.1663 148.499C54.1342 140.095 56.8009 131.929 60.1663 123.999C61.1663 123.999 62.1663 123.999 63.1663 123.999C63.1472 122.439 62.8139 120.939 62.1663 119.499C62.5024 118.469 63.1691 117.969 64.1663 117.999Z" fill="#7392FF"/>
<path opacity="0.972" fill-rule="evenodd" clip-rule="evenodd" d="M233.165 135C247.989 151.461 252.656 170.295 247.165 191.5C242.995 194.288 238.662 194.621 234.165 192.5C227.392 186.393 220.058 181.06 212.165 176.5C201.02 174.683 190.02 171.35 179.165 166.5C168.79 159.979 158.123 153.979 147.165 148.5C141.825 146.966 137.325 148.133 133.665 152C132.137 154.917 130.804 157.917 129.665 161C126.464 173.47 122.797 185.804 118.665 198C115.249 205.171 111.083 211.838 106.165 218C102.081 219.181 98.0811 218.847 94.1653 217C82.4642 220.556 78.6309 228.223 82.6653 240C89.1289 247.308 96.2956 253.808 104.165 259.5C103.571 259.964 102.904 260.131 102.165 260C92.8219 256.494 84.6552 251.161 77.6653 244C72.4781 235.75 71.8114 227.083 75.6653 218C82.75 202.144 91.5833 187.477 102.165 174C111.781 163.221 122.781 154.054 135.165 146.5C160.622 133.055 187.622 125.721 216.165 124.5C222.497 126.996 228.164 130.496 233.165 135Z" fill="#7392FF"/>
<path fill-rule="evenodd" clip-rule="evenodd" d="M89.166 120C90.2827 123.795 90.9493 127.795 91.166 132C91.3376 132.992 91.0042 133.658 90.166 134C88.513 133.84 87.1797 133.174 86.166 132C87.166 132 88.166 132 89.166 132C89.166 128 89.166 124 89.166 120Z" fill="#EC7348"/>
<path fill-rule="evenodd" clip-rule="evenodd" d="M98.1668 140C100.681 141.682 102.681 143.848 104.167 146.5C103.817 147.757 103.15 148.091 102.167 147.5C100.366 145.688 98.6999 143.855 97.1668 142C96.9952 141.008 97.3286 140.342 98.1668 140Z" fill="#EC7348"/>
<path opacity="0.986" fill-rule="evenodd" clip-rule="evenodd" d="M102.166 174C91.5836 187.477 82.7503 202.144 75.6656 218C71.8117 227.083 72.4784 235.75 77.6656 244C84.6555 251.161 92.8222 256.494 102.166 260C102.251 260.996 101.918 261.829 101.166 262.5C80.9645 266.211 63.4645 260.378 48.6656 245C42.4448 234.105 42.4448 223.438 48.6656 213C50.9313 209.458 53.4313 206.125 56.1656 203C60.8955 198.264 65.8955 193.931 71.1656 190C73.2724 187.773 75.6057 185.773 78.1656 184C83.2429 180.765 87.9095 176.931 92.1656 172.5C97.0172 169.499 102.017 166.666 107.166 164C108.187 164.502 108.354 165.168 107.666 166C104.659 168.02 102.826 170.687 102.166 174Z" fill="#7392FF"/>
<path fill-rule="evenodd" clip-rule="evenodd" d="M74.166 170C73.2532 174.91 74.5865 178.91 78.166 182C78.166 182.667 78.166 183.333 78.166 184C75.6061 185.773 73.2728 187.773 71.166 190C70.0798 189.88 69.4132 189.213 69.166 188C69.9946 181.579 71.6612 175.579 74.166 170Z" fill="#7392FF"/>
<path opacity="0.961" fill-rule="evenodd" clip-rule="evenodd" d="M263.166 211C274.287 210.321 277.12 214.987 271.666 225C270.108 226.859 268.275 228.359 266.166 229.5C258.787 231.182 251.787 233.848 245.166 237.5C231.123 242.053 216.956 246.22 202.666 250C197.231 249.82 191.898 249.82 186.666 250C180.647 245.962 177.814 240.296 178.166 233C179.992 229.995 182.659 228.161 186.166 227.5C211.849 221.399 237.515 215.899 263.166 211Z" fill="#FFC33F"/>
<path opacity="0.966" fill-rule="evenodd" clip-rule="evenodd" d="M172.902 287.5C181.402 287.5 183.471 291.7 187.903 297C198.859 312.865 205.166 330.5 208.403 349.5C209.166 357.5 203.401 359.182 196.403 357.5C188.481 354.251 181.411 349.418 175.666 343C170.666 337 167.166 332 163.403 327C157.888 330.373 152.222 330.706 146.403 328C143.074 345.482 134.666 360.5 119.166 369.5C111.166 372.5 106.904 367.5 103.903 357.5C102.404 335 108.098 315.271 118.903 296C121.536 291.433 125.37 289.933 130.403 291.5C135.166 294 137.166 295 141.404 299C146.403 298.5 141.404 299 146.403 298.5C151.718 297.687 157.051 297.021 162.403 296.5C165.607 293.464 165.402 287.5 172.902 287.5Z" fill="#7392FF"/>
<defs>
<filter id="filter0_b_968_21" x="337.762" y="145.4" width="814.709" height="166.4" filterUnits="userSpaceOnUse" color-interpolation-filters="sRGB">
<feFlood flood-opacity="0" result="BackgroundImageFix"/>
<feGaussianBlur in="BackgroundImageFix" stdDeviation="2"/>
<feComposite in2="SourceAlpha" operator="in" result="effect1_backgroundBlur_968_21"/>
<feBlend mode="normal" in="SourceGraphic" in2="effect1_backgroundBlur_968_21" result="shape"/>
</filter>
</defs>
</svg>
