<svg width="237" height="229" viewBox="0 0 237 229" fill="none" xmlns="http://www.w3.org/2000/svg">
<g filter="url(#filter0_dd_1023_320)">
<path fill-rule="evenodd" clip-rule="evenodd" d="M40.3149 59.5C44.0739 28.6138 80.8678 0 117.5 0C153.737 0 189.253 27.999 193.563 58.5H219.28C226.739 58.5 232.39 65.232 231.099 72.5779L210.986 186.982C210.466 204.753 195.897 219 178 219H57C38.8731 219 24.1598 204.385 24.0013 186.295L4.18452 73.5779C2.89306 66.232 8.54479 59.5 16.0033 59.5H40.3149ZM160.945 59H73.0546C77.5015 42.4113 95.488 30 117 30C138.512 30 156.499 42.4113 160.945 59Z" fill="#7392FF"/>
</g>
<mask id="path-2-outside-1_1023_320" maskUnits="userSpaceOnUse" x="48" y="98" width="140" height="71" fill="black">
<rect fill="white" x="48" y="98" width="140" height="71"/>
<path d="M53.9038 135.48H62.9438L65.9038 109.64H71.9038L68.9438 135.48H91.1838L94.1438 109.64H100.144L97.1838 135.48H109.024V140.76H84.2238V160.68H113.744V165.96H49.1838V160.68H78.6238V140.76H53.9038V135.48ZM108.944 105.24H53.9838V99.96H108.944V105.24ZM137.385 167.64C127.705 167.4 122.505 160.44 122.505 153.4C122.505 146.04 127.065 139.32 137.545 139.08C145.785 138.92 154.825 138.92 163.065 139.08C173.385 139.08 178.105 145.96 178.105 153.4C178.105 160.52 172.905 167.4 163.145 167.64C153.465 167.88 147.545 167.88 137.385 167.64ZM138.025 162.36C141.785 162.44 145.945 162.44 150.345 162.44C154.745 162.44 158.825 162.44 162.585 162.36C169.865 162.12 172.505 157.8 172.505 153.48C172.505 148.84 170.265 144.44 162.505 144.44C158.745 144.36 154.665 144.36 150.345 144.36C145.945 144.36 141.865 144.36 138.105 144.44C130.265 144.44 128.105 148.92 128.105 153.48C128.105 157.8 130.745 162.12 138.025 162.36ZM158.905 105.24H146.345L159.305 133.48H153.145L140.025 105.24H138.585L125.305 133.48H119.145L132.105 105.24H119.465V99.96H158.905V105.24ZM186.665 114.04V119.32H175.225V135H169.625V99.08H175.225V114.04H186.665Z"/>
</mask>
<path d="M53.9038 135.48H62.9438L65.9038 109.64H71.9038L68.9438 135.48H91.1838L94.1438 109.64H100.144L97.1838 135.48H109.024V140.76H84.2238V160.68H113.744V165.96H49.1838V160.68H78.6238V140.76H53.9038V135.48ZM108.944 105.24H53.9838V99.96H108.944V105.24ZM137.385 167.64C127.705 167.4 122.505 160.44 122.505 153.4C122.505 146.04 127.065 139.32 137.545 139.08C145.785 138.92 154.825 138.92 163.065 139.08C173.385 139.08 178.105 145.96 178.105 153.4C178.105 160.52 172.905 167.4 163.145 167.64C153.465 167.88 147.545 167.88 137.385 167.64ZM138.025 162.36C141.785 162.44 145.945 162.44 150.345 162.44C154.745 162.44 158.825 162.44 162.585 162.36C169.865 162.12 172.505 157.8 172.505 153.48C172.505 148.84 170.265 144.44 162.505 144.44C158.745 144.36 154.665 144.36 150.345 144.36C145.945 144.36 141.865 144.36 138.105 144.44C130.265 144.44 128.105 148.92 128.105 153.48C128.105 157.8 130.745 162.12 138.025 162.36ZM158.905 105.24H146.345L159.305 133.48H153.145L140.025 105.24H138.585L125.305 133.48H119.145L132.105 105.24H119.465V99.96H158.905V105.24ZM186.665 114.04V119.32H175.225V135H169.625V99.08H175.225V114.04H186.665Z" fill="white"/>
<path d="M53.9038 135.48V134.48H52.9038V135.48H53.9038ZM62.9438 135.48V136.48H63.8357L63.9373 135.594L62.9438 135.48ZM65.9038 109.64V108.64H65.0118L64.9102 109.526L65.9038 109.64ZM71.9038 109.64L72.8973 109.754L73.0248 108.64H71.9038V109.64ZM68.9438 135.48L67.9502 135.366L67.8227 136.48H68.9438V135.48ZM91.1838 135.48V136.48H92.0757L92.1773 135.594L91.1838 135.48ZM94.1438 109.64V108.64H93.2518L93.1503 109.526L94.1438 109.64ZM100.144 109.64L101.137 109.754L101.265 108.64H100.144V109.64ZM97.1838 135.48L96.1902 135.366L96.0627 136.48H97.1838V135.48ZM109.024 135.48H110.024V134.48H109.024V135.48ZM109.024 140.76V141.76H110.024V140.76H109.024ZM84.2238 140.76V139.76H83.2238V140.76H84.2238ZM84.2238 160.68H83.2238V161.68H84.2238V160.68ZM113.744 160.68H114.744V159.68H113.744V160.68ZM113.744 165.96V166.96H114.744V165.96H113.744ZM49.1838 165.96H48.1838V166.96H49.1838V165.96ZM49.1838 160.68V159.68H48.1838V160.68H49.1838ZM78.6238 160.68V161.68H79.6238V160.68H78.6238ZM78.6238 140.76H79.6238V139.76H78.6238V140.76ZM53.9038 140.76H52.9038V141.76H53.9038V140.76ZM108.944 105.24V106.24H109.944V105.24H108.944ZM53.9838 105.24H52.9838V106.24H53.9838V105.24ZM53.9838 99.96V98.96H52.9838V99.96H53.9838ZM108.944 99.96H109.944V98.96H108.944V99.96ZM53.9038 136.48H62.9438V134.48H53.9038V136.48ZM63.9373 135.594L66.8973 109.754L64.9102 109.526L61.9502 135.366L63.9373 135.594ZM65.9038 110.64H71.9038V108.64H65.9038V110.64ZM70.9102 109.526L67.9502 135.366L69.9373 135.594L72.8973 109.754L70.9102 109.526ZM68.9438 136.48H91.1838V134.48H68.9438V136.48ZM92.1773 135.594L95.1373 109.754L93.1503 109.526L90.1903 135.366L92.1773 135.594ZM94.1438 110.64H100.144V108.64H94.1438V110.64ZM99.1502 109.526L96.1902 135.366L98.1773 135.594L101.137 109.754L99.1502 109.526ZM97.1838 136.48H109.024V134.48H97.1838V136.48ZM108.024 135.48V140.76H110.024V135.48H108.024ZM109.024 139.76H84.2238V141.76H109.024V139.76ZM83.2238 140.76V160.68H85.2238V140.76H83.2238ZM84.2238 161.68H113.744V159.68H84.2238V161.68ZM112.744 160.68V165.96H114.744V160.68H112.744ZM113.744 164.96H49.1838V166.96H113.744V164.96ZM50.1838 165.96V160.68H48.1838V165.96H50.1838ZM49.1838 161.68H78.6238V159.68H49.1838V161.68ZM79.6238 160.68V140.76H77.6238V160.68H79.6238ZM78.6238 139.76H53.9038V141.76H78.6238V139.76ZM54.9038 140.76V135.48H52.9038V140.76H54.9038ZM108.944 104.24H53.9838V106.24H108.944V104.24ZM54.9838 105.24V99.96H52.9838V105.24H54.9838ZM53.9838 100.96H108.944V98.96H53.9838V100.96ZM107.944 99.96V105.24H109.944V99.96H107.944ZM137.385 167.64L137.36 168.64L137.361 168.64L137.385 167.64ZM137.545 139.08L137.526 138.08L137.522 138.08L137.545 139.08ZM163.065 139.08L163.046 140.08L163.055 140.08H163.065V139.08ZM163.145 167.64L163.12 166.64L163.12 166.64L163.145 167.64ZM138.025 162.36L137.992 163.36L138.004 163.36L138.025 162.36ZM162.585 162.36L162.606 163.36L162.618 163.359L162.585 162.36ZM162.505 144.44L162.484 145.44L162.494 145.44H162.505V144.44ZM138.105 144.44V145.44H138.116L138.126 145.44L138.105 144.44ZM158.905 105.24V106.24H159.905V105.24H158.905ZM146.345 105.24V104.24H144.786L145.436 105.657L146.345 105.24ZM159.305 133.48V134.48H160.864L160.214 133.063L159.305 133.48ZM153.145 133.48L152.238 133.901L152.507 134.48H153.145V133.48ZM140.025 105.24L140.932 104.819L140.663 104.24H140.025V105.24ZM138.585 105.24V104.24H137.95L137.68 104.814L138.585 105.24ZM125.305 133.48V134.48H125.94L126.21 133.906L125.305 133.48ZM119.145 133.48L118.236 133.063L117.586 134.48H119.145V133.48ZM132.105 105.24L133.014 105.657L133.664 104.24H132.105V105.24ZM119.465 105.24H118.465V106.24H119.465V105.24ZM119.465 99.96V98.96H118.465V99.96H119.465ZM158.905 99.96H159.905V98.96H158.905V99.96ZM186.665 114.04H187.665V113.04H186.665V114.04ZM186.665 119.32V120.32H187.665V119.32H186.665ZM175.225 119.32V118.32H174.225V119.32H175.225ZM175.225 135V136H176.225V135H175.225ZM169.625 135H168.625V136H169.625V135ZM169.625 99.08V98.08H168.625V99.08H169.625ZM175.225 99.08H176.225V98.08H175.225V99.08ZM175.225 114.04H174.225V115.04H175.225V114.04ZM137.41 166.64C128.299 166.414 123.505 159.925 123.505 153.4H121.505C121.505 160.955 127.111 168.386 137.36 168.64L137.41 166.64ZM123.505 153.4C123.505 149.921 124.581 146.662 126.827 144.252C129.062 141.853 132.548 140.195 137.568 140.08L137.522 138.08C132.062 138.205 128.028 140.027 125.363 142.888C122.709 145.738 121.505 149.519 121.505 153.4H123.505ZM137.564 140.08C145.791 139.92 154.819 139.92 163.046 140.08L163.084 138.08C154.831 137.92 145.779 137.92 137.526 138.08L137.564 140.08ZM163.065 140.08C167.99 140.08 171.47 141.714 173.723 144.132C175.991 146.564 177.105 149.885 177.105 153.4H179.105C179.105 149.475 177.859 145.636 175.187 142.768C172.5 139.886 168.46 138.08 163.065 138.08V140.08ZM177.105 153.4C177.105 159.998 172.318 166.414 163.12 166.64L163.17 168.64C173.492 168.386 179.105 161.042 179.105 153.4H177.105ZM163.12 166.64C153.457 166.88 147.553 166.88 137.409 166.64L137.361 168.64C147.537 168.88 153.473 168.88 163.17 168.64L163.12 166.64ZM138.004 163.36C141.776 163.44 145.948 163.44 150.345 163.44V161.44C145.942 161.44 141.794 161.44 138.046 161.36L138.004 163.36ZM150.345 163.44C154.742 163.44 158.834 163.44 162.606 163.36L162.564 161.36C158.816 161.44 154.748 161.44 150.345 161.44V163.44ZM162.618 163.359C166.456 163.233 169.208 162.022 170.999 160.139C172.783 158.265 173.505 155.838 173.505 153.48H171.505C171.505 155.442 170.907 157.335 169.551 158.761C168.202 160.178 165.994 161.247 162.552 161.361L162.618 163.359ZM173.505 153.48C173.505 151.016 172.912 148.476 171.154 146.547C169.381 144.599 166.574 143.44 162.505 143.44V145.44C166.196 145.44 168.389 146.481 169.676 147.893C170.978 149.324 171.505 151.304 171.505 153.48H173.505ZM162.526 143.44C158.754 143.36 154.662 143.36 150.345 143.36V145.36C154.668 145.36 158.736 145.36 162.484 145.44L162.526 143.44ZM150.345 143.36C145.948 143.36 141.856 143.36 138.084 143.44L138.126 145.44C141.874 145.36 145.942 145.36 150.345 145.36V143.36ZM138.105 143.44C133.993 143.44 131.185 144.621 129.421 146.581C127.676 148.522 127.105 151.061 127.105 153.48H129.105C129.105 151.339 129.614 149.358 130.909 147.919C132.185 146.499 134.377 145.44 138.105 145.44V143.44ZM127.105 153.48C127.105 155.838 127.827 158.265 129.611 160.139C131.402 162.022 134.154 163.233 137.992 163.359L138.058 161.361C134.616 161.247 132.408 160.178 131.059 158.761C129.703 157.335 129.105 155.442 129.105 153.48H127.105ZM158.905 104.24H146.345V106.24H158.905V104.24ZM145.436 105.657L158.396 133.897L160.214 133.063L147.254 104.823L145.436 105.657ZM159.305 132.48H153.145V134.48H159.305V132.48ZM154.052 133.059L140.932 104.819L139.118 105.661L152.238 133.901L154.052 133.059ZM140.025 104.24H138.585V106.24H140.025V104.24ZM137.68 104.814L124.4 133.054L126.21 133.906L139.49 105.666L137.68 104.814ZM125.305 132.48H119.145V134.48H125.305V132.48ZM120.054 133.897L133.014 105.657L131.196 104.823L118.236 133.063L120.054 133.897ZM132.105 104.24H119.465V106.24H132.105V104.24ZM120.465 105.24V99.96H118.465V105.24H120.465ZM119.465 100.96H158.905V98.96H119.465V100.96ZM157.905 99.96V105.24H159.905V99.96H157.905ZM185.665 114.04V119.32H187.665V114.04H185.665ZM186.665 118.32H175.225V120.32H186.665V118.32ZM174.225 119.32V135H176.225V119.32H174.225ZM175.225 134H169.625V136H175.225V134ZM170.625 135V99.08H168.625V135H170.625ZM169.625 100.08H175.225V98.08H169.625V100.08ZM174.225 99.08V114.04H176.225V99.08H174.225ZM175.225 115.04H186.665V113.04H175.225V115.04Z" fill="white" mask="url(#path-2-outside-1_1023_320)"/>
<defs>
<filter id="filter0_dd_1023_320" x="0" y="0" width="236.284" height="229" filterUnits="userSpaceOnUse" color-interpolation-filters="sRGB">
<feFlood flood-opacity="0" result="BackgroundImageFix"/>
<feColorMatrix in="SourceAlpha" type="matrix" values="0 0 0 0 0 0 0 0 0 0 0 0 0 0 0 0 0 0 127 0" result="hardAlpha"/>
<feOffset dx="5" dy="10"/>
<feComposite in2="hardAlpha" operator="out"/>
<feColorMatrix type="matrix" values="0 0 0 0 0 0 0 0 0 0 0 0 0 0 0 0 0 0 0.25 0"/>
<feBlend mode="normal" in2="BackgroundImageFix" result="effect1_dropShadow_1023_320"/>
<feColorMatrix in="SourceAlpha" type="matrix" values="0 0 0 0 0 0 0 0 0 0 0 0 0 0 0 0 0 0 127 0" result="hardAlpha"/>
<feOffset dy="4"/>
<feGaussianBlur stdDeviation="2"/>
<feComposite in2="hardAlpha" operator="out"/>
<feColorMatrix type="matrix" values="0 0 0 0 0 0 0 0 0 0 0 0 0 0 0 0 0 0 0.25 0"/>
<feBlend mode="normal" in2="effect1_dropShadow_1023_320" result="effect2_dropShadow_1023_320"/>
<feBlend mode="normal" in="SourceGraphic" in2="effect2_dropShadow_1023_320" result="shape"/>
</filter>
</defs>
</svg>
